<?xml version="1.0" encoding="UTF-8"?>
<svg version="1.1" xmlns="http://www.w3.org/2000/svg" width="5000" height="5000">
<path d="M0 0 C1650 0 3300 0 5000 0 C5000 1650 5000 3300 5000 5000 C3350 5000 1700 5000 0 5000 C0 3350 0 1700 0 0 Z " fill="#231F20" transform="translate(0,0)"/>
<path d="M0 0 C25.48441335 13.29887533 47.33308595 36.47801273 56.34179688 64.04833984 C66.55563888 97.65730202 62.65812049 131.34348196 52.02246094 164.28808594 C51.61423096 165.55628174 51.61423096 165.55628174 51.19775391 166.85009766 C50.36581156 169.3984377 49.51269323 171.93836753 48.64746094 174.47558594 C48.40406982 175.1977832 48.16067871 175.91998047 47.90991211 176.6640625 C47.36013072 178.22374056 46.77569272 179.77143685 46.16577148 181.30859375 C45.53339526 182.95657997 44.92082705 184.61422091 44.3956604 186.29943848 C41.22335467 196.4707858 37.72035709 203.12323109 28.08105469 208.21777344 C24.58207501 209.96518694 21.0307397 211.56891478 17.45996094 213.16308594 C15.58414496 214.05277874 13.71110329 214.94834336 11.84082031 215.84960938 C8.19282654 217.60053185 4.53432669 219.32455937 0.86181641 221.0234375 C-4.8539212 223.67831015 -10.4220371 226.56228018 -15.97753906 229.53808594 C-17.72124517 230.45421759 -19.46605937 231.36824295 -21.21191406 232.28027344 C-22.11103516 232.75045898 -23.01015625 233.22064453 -23.93652344 233.70507812 C-30.35545198 237.04646643 -36.79280822 240.35226249 -43.22753906 243.66308594 C-53.31910359 248.85570465 -63.40523277 254.05817637 -73.47753906 259.28808594 C-83.46733912 264.47469427 -93.46951696 269.63675422 -103.47753906 274.78808594 C-115.77261558 281.116861 -128.05507273 287.46934194 -140.32910156 293.83886719 C-147.25110283 297.43089654 -154.17598719 301.01734131 -161.10253906 304.60058594 C-161.99492279 305.06224655 -161.99492279 305.06224655 -162.90533447 305.53323364 C-173.50032475 311.01355494 -184.10466562 316.47564906 -194.71014404 321.93563843 C-206.25541674 327.88000656 -217.78754099 333.84926166 -229.31347656 339.83105469 C-236.3233067 343.46873955 -243.33754535 347.09787364 -250.35253906 350.72558594 C-251.56168877 351.35098786 -252.77083591 351.97639476 -253.97998047 352.60180664 C-259.54532107 355.48018454 -265.11120379 358.35750629 -270.67843628 361.23222351 C-273.2125174 362.54083894 -275.74631574 363.85000139 -278.28009033 365.15921021 C-280.01018269 366.05287977 -281.74067582 366.94577332 -283.47119141 367.83862305 C-289.17201719 370.78442624 -294.8604691 373.75093931 -300.53372192 376.74940491 C-312.37254461 383.0040782 -324.29365049 389.09220823 -336.22753906 395.16308594 C-350.08178287 402.2117363 -363.90365278 409.315875 -377.67773438 416.52001953 C-384.19420897 419.92719982 -390.72994435 423.29640732 -397.27038574 426.6572876 C-400.76738031 428.45442392 -404.26309058 430.25405516 -407.75878906 432.05371094 C-408.45736023 432.41332916 -409.1559314 432.77294739 -409.87567139 433.14346313 C-416.4992933 436.55448184 -423.11465203 439.9812982 -429.72753906 443.41308594 C-430.81695801 443.97842041 -431.90637695 444.54375488 -433.02880859 445.1262207 C-434.11790527 445.69139404 -435.20700195 446.25656738 -436.32910156 446.83886719 C-443.25110283 450.43089654 -450.17598719 454.01734131 -457.10253906 457.60058594 C-457.99492279 458.06224655 -457.99492279 458.06224655 -458.90533447 458.53323364 C-469.50032475 464.01355494 -480.10466562 469.47564906 -490.71014404 474.93563843 C-502.25541674 480.88000656 -513.78754099 486.84926166 -525.31347656 492.83105469 C-532.3233067 496.46873955 -539.33754535 500.09787364 -546.35253906 503.72558594 C-547.56168877 504.35098786 -548.77083591 504.97639476 -549.97998047 505.60180664 C-555.54532107 508.48018454 -561.11120379 511.35750629 -566.67843628 514.23222351 C-569.2125174 515.54083894 -571.74631574 516.85000139 -574.28009033 518.15921021 C-576.01018269 519.05287977 -577.74067582 519.94577332 -579.47119141 520.83862305 C-585.16575112 523.78118836 -590.84792384 526.74443958 -596.51477051 529.7399292 C-609.49344028 536.59750582 -622.57423768 543.25070273 -635.65820312 549.90454102 C-638.6740728 551.43882483 -641.68926736 552.97442477 -644.70410156 554.51074219 C-645.66793762 555.00144196 -646.63177368 555.49214172 -647.62481689 555.99771118 C-654.44462622 559.47928218 -661.22207015 563.03479336 -667.94741821 566.69581604 C-672.76279833 569.28808594 -672.76279833 569.28808594 -674.97753906 569.28808594 C-675.09000977 569.82900879 -675.20248047 570.36993164 -675.31835938 570.92724609 C-676.53260999 576.59577676 -678.0323931 582.12113461 -679.72753906 587.66308594 C-679.98921875 588.52667725 -680.25089844 589.39026855 -680.52050781 590.2800293 C-683.02328403 598.50760674 -685.6102314 606.70827459 -688.21875 614.90283203 C-689.51831416 618.9880128 -690.81047375 623.07552856 -692.10253906 627.16308594 C-692.44671875 628.24891968 -692.44671875 628.24891968 -692.79785156 629.35668945 C-694.16675399 633.68457947 -695.51234004 638.01912158 -696.84472656 642.35839844 C-699.40635601 650.6985591 -702.01598304 659.02357041 -704.62304688 667.34960938 C-708.17968737 678.71035025 -711.70813928 690.07911884 -715.15698242 701.47314453 C-722.73798548 726.49900005 -730.39866211 751.50966888 -738.44213867 776.39111328 C-741.47497496 785.77386907 -744.34615865 795.20472808 -747.21191406 804.63964844 C-747.82990927 806.67229349 -748.448048 808.70489479 -749.0663147 810.73745728 C-749.51629897 812.21804197 -749.96563532 813.6988237 -750.41439819 815.17977905 C-753.52830794 825.44977119 -756.73620382 835.68426485 -760.04394531 845.89355469 C-767.02889321 867.51764212 -773.65375667 888.66616061 -777.27636719 911.13525391 C-778.09880975 916.12188694 -779.06353031 921.08049972 -780.02441406 926.04199219 C-780.29692993 927.45071342 -780.29692993 927.45071342 -780.57495117 928.88789368 C-780.94362574 930.79135923 -781.31260365 932.69476605 -781.68188477 934.59811401 C-784.58469178 949.36760633 -784.58469178 949.36760633 -787.02441406 964.21777344 C-787.62098632 968.29201118 -788.39849745 972.25682681 -789.36352539 976.25927734 C-791.03764441 983.41011106 -792.41868838 990.5987606 -793.75488281 997.81933594 C-794.00980351 999.18539048 -794.26498232 1000.55139688 -794.520401 1001.9173584 C-795.18704748 1005.48600524 -795.85048809 1009.0552401 -796.51312256 1012.62463379 C-797.17593852 1016.19246593 -797.84140615 1019.75980303 -798.50683594 1023.32714844 C-798.76849379 1024.73008726 -799.0301515 1026.1330261 -799.29180908 1027.53596497 C-799.4201136 1028.22383402 -799.54841812 1028.91170307 -799.68061066 1029.62041664 C-800.06593036 1031.68654769 -800.45103999 1033.75271781 -800.83612061 1035.81889343 C-803.76510635 1051.53063959 -806.7380446 1067.2287544 -809.92834473 1082.8895874 C-812.83149206 1097.16597107 -815.49925747 1111.47030612 -817.93603516 1125.83374023 C-818.96045662 1131.83029928 -820.04951221 1137.78290066 -821.46191406 1143.70214844 C-823.31968975 1151.50360777 -824.63477719 1159.38537282 -825.97753906 1167.28808594 C-827.51263259 1176.32275094 -829.13035256 1185.27791842 -831.25878906 1194.19628906 C-832.47963992 1199.44793826 -833.4738864 1204.74138995 -834.47753906 1210.03808594 C-834.67734375 1211.07707031 -834.87714844 1212.11605469 -835.08300781 1213.18652344 C-836.1099302 1218.56314893 -837.09711949 1223.94474123 -838.0332489 1229.33779907 C-839.59477998 1238.32531088 -841.34419563 1247.26529521 -843.16479492 1256.20358276 C-846.24583413 1271.3518376 -849.17639573 1286.52320566 -851.97753906 1301.72558594 C-854.59201842 1315.90704405 -857.26715913 1330.07419796 -860.04003906 1344.22558594 C-860.20631805 1345.07463501 -860.37259705 1345.92368408 -860.54391479 1346.79846191 C-861.52848056 1351.82375363 -862.51528593 1356.84860344 -863.50292969 1361.87329102 C-867.56654617 1382.54882118 -871.55251228 1403.23408781 -875.34399414 1423.96142578 C-877.70130231 1436.84187114 -880.12501256 1449.70907445 -882.58105469 1462.57104492 C-884.10489371 1470.56880698 -885.58046591 1478.57187353 -886.95550537 1486.59675598 C-887.63268787 1490.50788833 -888.41897705 1494.36777822 -889.35253906 1498.22558594 C-890.92204435 1504.79272647 -892.20405991 1511.40772008 -893.47753906 1518.03808594 C-893.77990479 1519.60804321 -893.77990479 1519.60804321 -894.08837891 1521.2097168 C-895.11228117 1526.57883001 -896.09847708 1531.95256231 -897.0332489 1537.33779907 C-898.59477998 1546.32531088 -900.34419563 1555.26529521 -902.16479492 1564.20358276 C-905.24583413 1579.3518376 -908.17639573 1594.52320566 -910.97753906 1609.72558594 C-913.59201842 1623.90704405 -916.26715913 1638.07419796 -919.04003906 1652.22558594 C-919.20631805 1653.07463501 -919.37259705 1653.92368408 -919.54391479 1654.79846191 C-920.52848056 1659.82375363 -921.51528593 1664.84860344 -922.50292969 1669.87329102 C-923.85252147 1676.739964 -925.19949047 1683.60714127 -926.54003906 1690.47558594 C-926.68173523 1691.20131805 -926.8234314 1691.92705017 -926.96942139 1692.67477417 C-929.44105396 1705.3531378 -931.7946132 1718.0519553 -934.11645508 1730.7585144 C-935.82226833 1740.09335052 -937.56855998 1749.41256483 -939.48779297 1758.70629883 C-940.55948192 1763.98313998 -941.51799821 1769.2773121 -942.44628906 1774.58105469 C-942.57716415 1775.32853973 -942.70803925 1776.07602478 -942.84288025 1776.84616089 C-943.49645638 1780.58842456 -944.14413087 1784.3316133 -944.78442383 1788.07617188 C-946.06380107 1795.50048455 -947.50960125 1802.8496757 -949.2565918 1810.1809082 C-950.47639926 1815.43810074 -951.47292183 1820.7362995 -952.47753906 1826.03808594 C-952.67734375 1827.07707031 -952.87714844 1828.11605469 -953.08300781 1829.18652344 C-954.1069176 1834.54737598 -955.09132499 1839.91285775 -956.02377319 1845.29042053 C-957.63699641 1854.58288339 -959.45626039 1863.82495228 -961.33728027 1873.06655884 C-964.15280193 1886.91320896 -966.88149659 1900.76299923 -969.25439453 1914.69360352 C-970.32920882 1920.93610472 -971.55978987 1927.12989003 -972.88378906 1933.32324219 C-974.83031587 1942.43872224 -976.56385484 1951.58476167 -978.24078369 1960.75320435 C-981.24330004 1977.1604973 -984.37640484 1993.53837079 -987.60617065 2009.90228271 C-990.24348637 2023.2866801 -992.70535489 2036.69425482 -994.98779297 2050.14379883 C-996.19823039 2057.19817126 -997.59643097 2064.15385309 -999.25219727 2071.11669922 C-1000.48234061 2076.49521221 -1001.43963729 2081.92114064 -1002.41503906 2087.35058594 C-1003.87638967 2095.36332928 -1005.35983957 2103.36784208 -1006.97753906 2111.35058594 C-1008.53562175 2119.05187511 -1010.05166313 2126.76050212 -1011.54003906 2134.47558594 C-1011.73791016 2135.49595947 -1011.93578125 2136.51633301 -1012.13964844 2137.56762695 C-1013.14759639 2142.80654454 -1014.1162229 2148.04961149 -1015.02871704 2153.30607605 C-1016.59153244 2162.30426203 -1018.34205287 2171.25477528 -1020.16479492 2180.20358276 C-1023.24583413 2195.3518376 -1026.17639573 2210.52320566 -1028.97753906 2225.72558594 C-1031.59201842 2239.90704405 -1034.26715913 2254.07419796 -1037.04003906 2268.22558594 C-1037.20631805 2269.07463501 -1037.37259705 2269.92368408 -1037.54391479 2270.79846191 C-1038.52848056 2275.82375363 -1039.51528593 2280.84860344 -1040.50292969 2285.87329102 C-1044.56686071 2306.55042156 -1048.54803031 2327.23808673 -1052.34619141 2347.96582031 C-1060.88434602 2394.55327329 -1060.88434602 2394.55327329 -1064.4855957 2411.15454102 C-1066.16067425 2418.96411354 -1067.62631289 2426.81407156 -1069.10253906 2434.66308594 C-1069.23105255 2435.34263336 -1069.35956604 2436.02218079 -1069.49197388 2436.72232056 C-1070.76241221 2443.45045511 -1071.98302486 2450.17544043 -1072.96972656 2456.95214844 C-1073.58882828 2461.10575044 -1074.37410229 2465.15492958 -1075.36035156 2469.23632812 C-1076.92855205 2475.93272892 -1078.24031953 2482.66043234 -1079.48651505 2489.42341995 C-1079.87087995 2491.5092837 -1080.25876376 2493.59446869 -1080.64743042 2495.67953491 C-1081.32992242 2499.34387398 -1082.0094785 2503.00874981 -1082.68798828 2506.67382812 C-1083.78011424 2512.57310924 -1084.87458434 2518.47194785 -1085.9732933 2524.37000656 C-1086.35455188 2526.4209496 -1086.73315951 2528.47237012 -1087.11160278 2530.52383423 C-1087.3420932 2531.76297577 -1087.57258362 2533.00211731 -1087.81005859 2534.27880859 C-1088.11292282 2535.91542953 -1088.11292282 2535.91542953 -1088.42190552 2537.58511353 C-1088.97753906 2540.28808594 -1088.97753906 2540.28808594 -1089.97753906 2543.28808594 C-1090.13140969 2544.61530634 -1090.24760812 2545.94715131 -1090.33691406 2547.28027344 C-1091.84523287 2566.64868518 -1098.42107984 2583.79349609 -1112.97753906 2597.28808594 C-1128.11630316 2609.59570454 -1143.97344101 2613.60498419 -1163.20721799 2613.53993493 C-1164.76260866 2613.54204526 -1166.31799835 2613.54503171 -1167.87338586 2613.54881028 C-1172.15740068 2613.55667115 -1176.44132578 2613.55207099 -1180.72533939 2613.54547446 C-1185.39965322 2613.54048908 -1190.07395304 2613.5471285 -1194.7482647 2613.55227813 C-1202.97545845 2613.55973089 -1211.20262633 2613.55971613 -1219.42982165 2613.55488864 C-1231.74629796 2613.54769729 -1244.06275189 2613.55200442 -1256.3792276 2613.55856999 C-1277.36846136 2613.56941659 -1298.35768615 2613.57072253 -1319.34692192 2613.56687164 C-1340.62407272 2613.56299908 -1361.90121758 2613.56342897 -1383.17836761 2613.56918144 C-1384.18456535 2613.56945032 -1384.18456535 2613.56945032 -1385.21109031 2613.56972463 C-1391.35845253 2613.57136746 -1397.50581474 2613.57305305 -1403.65317693 2613.57479026 C-1419.06913384 2613.57914004 -1434.48509087 2613.58277535 -1449.90104806 2613.5859226 C-1450.6075067 2613.58606705 -1451.31396534 2613.5862115 -1452.04183182 2613.58636033 C-1486.87753607 2613.5934131 -1521.71323971 2613.59276996 -1556.54894447 2613.59124184 C-1557.30411521 2613.59120876 -1558.05928594 2613.59117569 -1558.83734064 2613.59114162 C-1561.89464803 2613.5910073 -1564.95195541 2613.59087215 -1568.0092628 2613.59073624 C-1576.45440729 2613.59036108 -1584.89955179 2613.59000341 -1593.34469628 2613.58966851 C-1594.10715465 2613.5896378 -1594.86961301 2613.58960708 -1595.65517617 2613.58957543 C-1630.20533921 2613.58820178 -1664.75550155 2613.59073097 -1699.3056644 2613.59419458 C-1703.92674163 2613.59465781 -1708.54781885 2613.59510968 -1713.16889608 2613.5955587 C-1713.93277966 2613.59563298 -1714.69666323 2613.59570726 -1715.4836948 2613.59578379 C-1717.02798056 2613.59593394 -1718.57226633 2613.59608406 -1720.11655209 2613.59623415 C-1723.98333616 2613.59661022 -1727.85012022 2613.59698769 -1731.71690429 2613.59736524 C-1732.86690688 2613.59747744 -1732.86690688 2613.59747744 -1734.04014184 2613.59759191 C-1737.91705008 2613.59797038 -1741.79395831 2613.59835031 -1745.67086654 2613.59873286 C-1781.85315703 2613.6023011 -1818.03544755 2613.6051654 -1854.21773815 2613.60732555 C-1855.00611344 2613.60737279 -1855.79448873 2613.60742003 -1856.60675418 2613.6074687 C-1906.84835907 2613.61046374 -1957.08996342 2613.61033817 -2007.33156832 2613.60790478 C-2009.80228749 2613.60778519 -2012.27300665 2613.60766681 -2014.74372582 2613.60754869 C-2032.93080865 2613.60667725 -2051.11789147 2613.60574665 -2069.3049743 2613.60479806 C-2070.96363961 2613.60471167 -2072.62230493 2613.6046253 -2074.28097024 2613.60453894 C-2075.94031569 2613.6044525 -2077.59966114 2613.60436606 -2079.25900659 2613.60427961 C-2080.49143201 2613.60421542 -2080.49143201 2613.60421542 -2081.74875491 2613.60414994 C-2085.90020693 2613.60393355 -2090.05165895 2613.60371611 -2094.20311097 2613.60349671 C-2172.61909169 2613.59935782 -2251.03506973 2613.59828147 -2329.4510498 2613.61065674 C-2330.68950036 2613.61085216 -2330.68950036 2613.61085216 -2331.95297012 2613.61105153 C-2356.91954211 2613.61500343 -2381.88611404 2613.61936299 -2406.85268595 2613.62382269 C-2434.15234915 2613.6286987 -2461.45201236 2613.63353258 -2488.75167561 2613.63810444 C-2489.56667103 2613.63824121 -2490.38166646 2613.63837798 -2491.22135872 2613.6385189 C-2542.25655935 2613.64707248 -2593.29175922 2613.65197717 -2644.32696056 2613.652812 C-2645.50916323 2613.65283191 -2645.50916323 2613.65283191 -2646.71524879 2613.65285222 C-2681.32694795 2613.65342753 -2715.93864706 2613.65314281 -2750.55034621 2613.65193351 C-2763.70380487 2613.65147429 -2776.85726353 2613.65108205 -2790.0107222 2613.65072275 C-2793.08992365 2613.65063848 -2796.1691251 2613.65054921 -2799.24832654 2613.65045593 C-2834.56802037 2613.64940016 -2869.88771221 2613.65048221 -2905.20740533 2613.65813088 C-2905.96926386 2613.65829553 -2906.73112238 2613.65846017 -2907.51606753 2613.6586298 C-2919.77173868 2613.66128814 -2932.02740979 2613.66410723 -2944.2830809 2613.66693383 C-2979.06940813 2613.67494682 -3013.85573246 2613.68129847 -3048.64206064 2613.67686498 C-3049.34773091 2613.67677558 -3050.05340118 2613.67668618 -3050.7804554 2613.67659407 C-3066.17496346 2613.67461067 -3081.56947124 2613.67177537 -3096.96397898 2613.66810355 C-3103.10348841 2613.66665131 -3109.24299786 2613.66530709 -3115.38250732 2613.66399574 C-3116.3870874 2613.66377664 -3116.3870874 2613.66377664 -3117.41196203 2613.66355311 C-3139.30923371 2613.65882955 -3161.20649214 2613.66421689 -3183.10376228 2613.67443594 C-3203.95316456 2613.68395503 -3224.80254344 2613.68282251 -3245.65194435 2613.67022971 C-3257.88682318 2613.66316058 -3270.12163488 2613.6643482 -3282.35650897 2613.67757809 C-3290.47368411 2613.68553996 -3298.59080823 2613.68269713 -3306.70797865 2613.67092846 C-3311.3148005 2613.66455525 -3315.92148934 2613.66288758 -3320.52830398 2613.67449566 C-3324.71012419 2613.68494539 -3328.89169797 2613.68153418 -3333.07350454 2613.66718727 C-3334.57126161 2613.66444728 -3336.06903862 2613.66668324 -3337.5667771 2613.6746324 C-3355.48875953 2613.76326104 -3370.36582942 2609.26639042 -3383.97753906 2597.28808594 C-3385.10289062 2596.32128906 -3385.10289062 2596.32128906 -3386.25097656 2595.33496094 C-3397.7406114 2584.74724283 -3406.12896286 2568.01046229 -3407.17382812 2552.34519958 C-3407.25719365 2548.97839128 -3407.28093225 2545.61686921 -3407.27832031 2542.24902344 C-3407.28260544 2541.00996246 -3407.28689056 2539.77090149 -3407.29130554 2538.49429321 C-3407.29702817 2535.88047901 -3407.29756442 2533.26664888 -3407.29321289 2530.65283203 C-3407.29006551 2526.69633104 -3407.31349612 2522.74058778 -3407.33886719 2518.78417969 C-3407.42196549 2487.09369167 -3407.42196549 2487.09369167 -3400.35253906 2474.03808594 C-3400.00626465 2473.37679687 -3399.65999023 2472.71550781 -3399.30322266 2472.03417969 C-3392.16839533 2458.8818358 -3382.17327806 2449.71285999 -3368.97753906 2442.91308594 C-3368.33743896 2442.57897705 -3367.69733887 2442.24486816 -3367.0378418 2441.90063477 C-3357.38218256 2437.16842383 -3347.50076182 2436.99861231 -3336.9179076 2437.03968894 C-3335.5028143 2437.03795522 -3334.08772186 2437.03534433 -3332.6726316 2437.03194297 C-3328.78349918 2437.02513242 -3324.89446946 2437.03075625 -3321.0053423 2437.03841104 C-3316.75873105 2437.04454635 -3312.51213202 2437.03902001 -3308.26552045 2437.03499728 C-3300.79400703 2437.02952752 -3293.32252411 2437.03151194 -3285.85101222 2437.03831957 C-3274.6660187 2437.04847084 -3263.48104699 2437.04706529 -3252.29605053 2437.04338642 C-3233.23470768 2437.03745233 -3214.17337707 2437.04100312 -3195.11203575 2437.04967499 C-3175.79134798 2437.05842616 -3156.47066654 2437.06282074 -3137.14997673 2437.06187057 C-3135.93041807 2437.06181319 -3134.71085941 2437.06175581 -3133.45434442 2437.06169668 C-3127.2359928 2437.06138394 -3121.01764118 2437.06100004 -3114.79928956 2437.06059101 C-3069.77071981 2437.05777474 -3024.74215634 2437.06464206 -2979.71358871 2437.07662582 C-2968.57817381 2437.07958419 -2957.4427589 2437.08250688 -2946.30734396 2437.08529806 C-2945.61513071 2437.0854716 -2944.92291746 2437.08564513 -2944.20972805 2437.08582392 C-2912.14404425 2437.09381887 -2880.07836062 2437.09668169 -2848.01267594 2437.09823 C-2845.91553313 2437.09833152 -2843.81839033 2437.09843545 -2841.72124752 2437.09854001 C-2829.07544963 2437.0991682 -2816.42965174 2437.09974294 -2803.78385384 2437.10025596 C-2772.34646305 2437.10153364 -2740.90907232 2437.10345256 -2709.47168159 2437.10580635 C-2708.75599468 2437.10585962 -2708.04030776 2437.10591288 -2707.30293337 2437.10596777 C-2660.9501285 2437.10942286 -2614.59732443 2437.11551776 -2568.24452019 2437.12382317 C-2567.50447174 2437.12395574 -2566.76442329 2437.12408832 -2566.00194913 2437.12422492 C-2543.47435308 2437.12826628 -2520.94675706 2437.13250306 -2498.41916106 2437.13677805 C-2473.48958476 2437.14150801 -2448.56000846 2437.14620462 -2423.63043213 2437.15075684 C-2422.88078935 2437.15089384 -2422.13114658 2437.15103083 -2421.35878735 2437.15117198 C-2350.15768666 2437.16417315 -2278.95658571 2437.17179424 -2207.75548415 2437.17802441 C-2204.73959843 2437.17828869 -2201.7237127 2437.17855453 -2198.70782698 2437.17882044 C-2170.95496602 2437.18126725 -2143.20210505 2437.18365092 -2115.44924407 2437.18595528 C-2114.71126952 2437.18601656 -2113.97329497 2437.18607784 -2113.21295755 2437.18614098 C-2110.97856906 2437.1863265 -2108.74418057 2437.186512 -2106.50979208 2437.1866975 C-2046.14690913 2437.19170918 -1985.78402622 2437.19727158 -1925.42114335 2437.20319078 C-1923.29136434 2437.20339948 -1921.16158534 2437.20360777 -1919.03180633 2437.20381592 C-1849.85879325 2437.21057839 -1780.68578037 2437.21833269 -1535.32080078 2437.25634766 C-1533.524171 2437.25664746 -1533.524171 2437.25664746 -1531.69124566 2437.25695333 C-1471.78667673 2437.26695444 -1411.88210786 2437.27730256 -1351.97753906 2437.28808594 C-1352.0067568 2436.71386737 -1352.03597453 2436.1396488 -1352.06607765 2435.54802966 C-1352.19947275 2432.92061597 -1352.33209571 2430.29316384 -1352.46470642 2427.66571045 C-1352.51068136 2426.76242949 -1352.55665629 2425.85914852 -1352.60402441 2424.92849541 C-1352.91763212 2418.70034387 -1353.16681002 2412.47620158 -1353.29394531 2406.24121094 C-1353.31477173 2405.31129333 -1353.33559814 2404.38137573 -1353.35705566 2403.42327881 C-1353.42170342 2400.46161141 -1353.48136263 2397.49987722 -1353.54003906 2394.53808594 C-1353.56121796 2393.51602051 -1353.58239685 2392.49395508 -1353.60421753 2391.44091797 C-1354.02848999 2370.72244701 -1354.09053584 2350.00995682 -1353.97753906 2329.28808594 C-1354.90241623 2329.21684509 -1354.90241623 2329.21684509 -1355.84597778 2329.14416504 C-1372.5311127 2327.85176937 -1389.19376617 2326.38289482 -1405.85253906 2324.78808594 C-1407.13980896 2324.66547394 -1408.42707886 2324.54286194 -1409.75335693 2324.41653442 C-1439.39362986 2321.59161476 -1469.0142938 2318.57097277 -1498.63632202 2315.56192017 C-1523.6686846 2313.01934695 -1548.70129168 2310.50752319 -1573.75561523 2308.18966675 C-1588.5488748 2306.82017964 -1603.32788321 2305.34557392 -1618.10253906 2303.78808594 C-1634.45137105 2302.06469572 -1650.80377681 2300.38957067 -1667.16503906 2298.78808594 C-1668.74477005 2298.63339844 -1668.74477005 2298.63339844 -1670.35641479 2298.47558594 C-1682.33198794 2297.30501799 -1694.30961499 2296.15792038 -1706.29003906 2295.03808594 C-1707.39327011 2294.93496094 -1708.49650116 2294.83183594 -1709.63316345 2294.72558594 C-1711.86260964 2294.51725025 -1714.09205605 2294.30891691 -1716.32150269 2294.10058594 C-1717.97655319 2293.94589844 -1717.97655319 2293.94589844 -1719.66503906 2293.78808594 C-1720.76864777 2293.68496094 -1721.87225647 2293.58183594 -1723.00930786 2293.47558594 C-1738.71718019 2292.00486248 -1754.41295501 2290.44226295 -1770.10253906 2288.78808594 C-1804.66412113 2285.14526554 -1839.25594416 2281.82538436 -1873.85315704 2278.54043579 C-1917.84682918 2274.36304891 -1961.82501706 2270.04675561 -2005.78208923 2265.50014877 C-2037.57879881 2262.21149756 -2069.38420298 2259.02167357 -2101.21191406 2256.04589844 C-2102.3200798 2255.94227997 -2103.42824554 2255.8386615 -2104.56999207 2255.73190308 C-2105.67990005 2255.62814362 -2106.78980804 2255.52438416 -2107.93334961 2255.41748047 C-2110.1772473 2255.20769516 -2112.42114378 2254.997897 -2114.66503906 2254.78808594 C-2116.32317123 2254.63312653 -2116.32317123 2254.63312653 -2118.01480103 2254.47503662 C-2133.72084307 2253.00450283 -2149.41478481 2251.44207003 -2165.10253906 2249.78808594 C-2199.66412113 2246.14526554 -2234.25594416 2242.82538436 -2268.85315704 2239.54043579 C-2312.84682918 2235.36304891 -2356.82501706 2231.04675561 -2400.78208923 2226.50014877 C-2432.57879881 2223.21149756 -2464.38420298 2220.02167357 -2496.21191406 2217.04589844 C-2497.3200798 2216.94227997 -2498.42824554 2216.8386615 -2499.56999207 2216.73190308 C-2500.67990005 2216.62814362 -2501.78980804 2216.52438416 -2502.93334961 2216.41748047 C-2505.1772473 2216.20769516 -2507.42114378 2215.997897 -2509.66503906 2215.78808594 C-2511.32317123 2215.63312653 -2511.32317123 2215.63312653 -2513.01480103 2215.47503662 C-2528.72084307 2214.00450283 -2544.41478481 2212.44207003 -2560.10253906 2210.78808594 C-2576.24317325 2209.08684925 -2592.38709078 2207.43101784 -2608.54003906 2205.85058594 C-2609.58405884 2205.74840759 -2610.62807861 2205.64622925 -2611.70373535 2205.54095459 C-2624.39324264 2204.3011138 -2637.08493121 2203.0851606 -2649.77832031 2201.88574219 C-2654.96974063 2201.39500536 -2660.16115129 2200.90416695 -2665.35253906 2200.41308594 C-2666.00930759 2200.35098309 -2666.66607613 2200.28888023 -2667.34274673 2200.22489548 C-2689.35556663 2198.14268063 -2711.35533199 2195.94775026 -2733.35136414 2193.69563293 C-2758.75994245 2191.09482078 -2784.17807897 2188.60359081 -2809.60253906 2186.16308594 C-2811.40198834 2185.99027148 -2813.201437 2185.81745045 -2815.00088501 2185.6446228 C-2821.9656403 2184.97578684 -2828.93043393 2184.30735117 -2835.89527893 2183.63945007 C-2869.6750356 2180.3999722 -2903.44120176 2177.04808152 -2937.19599915 2173.55875778 C-2969.8951162 2170.17881884 -3002.60654656 2166.94173855 -3035.33164406 2163.82297134 C-3041.64398956 2163.22137002 -3047.95628616 2162.61925592 -3054.26855087 2162.01680756 C-3055.8648233 2161.86445879 -3057.46109862 2161.71214042 -3059.05737686 2161.5598526 C-3080.74491767 2159.49037825 -3102.42178268 2157.34645732 -3124.08740234 2155.05712891 C-3143.11499773 2153.04820594 -3162.15666981 2151.1923626 -3181.20007324 2149.34028625 C-3190.39113255 2148.44533276 -3199.58094949 2147.53813249 -3208.77050781 2146.62792969 C-3214.7561671 2146.03530196 -3220.74184029 2145.44281466 -3226.72753906 2144.85058594 C-3227.85438992 2144.73909462 -3227.85438992 2144.73909462 -3229.00400543 2144.62535095 C-3245.94435911 2142.94973746 -3262.88567066 2141.28624737 -3279.83300781 2139.68261719 C-3280.50915068 2139.61863298 -3281.18529354 2139.55464878 -3281.88192558 2139.48872566 C-3287.86727558 2138.9225576 -3293.85274853 2138.3576925 -3299.83822632 2137.7928772 C-3319.29990957 2135.95384428 -3338.74834766 2134.01142984 -3358.1862793 2131.93603516 C-3370.77298184 2130.59547316 -3383.36843381 2129.39848735 -3395.97753906 2128.28808594 C-3400.35160051 2111.12593414 -3404.56140432 2093.94911665 -3408.40161133 2076.65893555 C-3410.29836668 2068.1668279 -3412.3335252 2059.72096852 -3414.47753906 2051.28808594 C-3416.94826118 2041.57018725 -3419.24091632 2031.82655711 -3421.41503906 2022.03808594 C-3423.77659277 2011.41109425 -3426.29918626 2000.83962046 -3428.97753906 1990.28808594 C-3431.98288096 1978.44835793 -3434.75474841 1966.57593299 -3437.40332031 1954.65136719 C-3439.55772667 1945.00550237 -3441.91746705 1935.423934 -3444.3527832 1925.84570312 C-3446.70309669 1916.53890779 -3448.83245284 1907.18913788 -3450.91503906 1897.81982422 C-3452.96605962 1888.60625532 -3455.15155029 1879.4363263 -3457.47753906 1870.28808594 C-3459.94827218 1860.57018991 -3462.24091637 1850.8265569 -3464.41503906 1841.03808594 C-3466.77659277 1830.41109425 -3469.29918626 1819.83962046 -3471.97753906 1809.28808594 C-3474.98288096 1797.44835793 -3477.75474841 1785.57593299 -3480.40332031 1773.65136719 C-3482.2994721 1765.1617785 -3484.33416358 1756.71845761 -3486.47753906 1748.28808594 C-3488.94826118 1738.57018725 -3491.24091632 1728.82655711 -3493.41503906 1719.03808594 C-3495.77659277 1708.41109425 -3498.29918626 1697.83962046 -3500.97753906 1687.28808594 C-3503.98288096 1675.44835793 -3506.75474841 1663.57593299 -3509.40332031 1651.65136719 C-3511.55706774 1642.00845258 -3513.91591627 1632.4297702 -3516.35058594 1622.85449219 C-3518.55817231 1614.11304278 -3520.58118744 1605.3376464 -3522.54003906 1596.53808594 C-3525.05441402 1585.24587642 -3527.74672633 1574.01405674 -3530.58691406 1562.79980469 C-3533.47295888 1551.40388114 -3536.14990555 1539.95914699 -3538.75097656 1528.49511719 C-3542.2430583 1513.10797574 -3545.79501684 1497.74092832 -3549.54003906 1482.41308594 C-3549.72996429 1481.63564026 -3549.91988953 1480.85819458 -3550.11557007 1480.05718994 C-3551.05121091 1476.2295095 -3551.98846957 1472.40222759 -3552.92675781 1468.57519531 C-3557.25846642 1450.9064879 -3561.46994907 1433.21772184 -3565.48706055 1415.47515869 C-3567.97759051 1404.48828329 -3570.6290487 1393.55321052 -3573.40551758 1382.63452148 C-3575.55305133 1374.13267467 -3577.51325657 1365.59798481 -3579.41503906 1357.03808594 C-3581.77666337 1346.4111089 -3584.29918568 1335.83962274 -3586.97753906 1325.28808594 C-3589.98288096 1313.44835793 -3592.75474841 1301.57593299 -3595.40332031 1289.65136719 C-3597.2994721 1281.1617785 -3599.33416358 1272.71845761 -3601.47753906 1264.28808594 C-3603.94826118 1254.57018725 -3606.24091632 1244.82655711 -3608.41503906 1235.03808594 C-3610.77659277 1224.41109425 -3613.29918626 1213.83962046 -3615.97753906 1203.28808594 C-3618.98288096 1191.44835793 -3621.75474841 1179.57593299 -3624.40332031 1167.65136719 C-3626.55772667 1158.00550237 -3628.91746705 1148.423934 -3631.3527832 1138.84570312 C-3633.70309669 1129.53890779 -3635.83245284 1120.18913788 -3637.91503906 1110.81982422 C-3639.96606041 1101.60625177 -3642.1516633 1092.4363574 -3644.47753906 1083.28808594 C-3647.36222439 1071.93668291 -3650.0198959 1060.54693936 -3652.5480957 1049.11181641 C-3654.31814941 1041.10548212 -3654.31814941 1041.10548212 -3656.30566406 1033.15136719 C-3663.57905549 1005.67919983 -3655.9250169 976.27527627 -3642.16894531 951.94824219 C-3635.74018777 940.99867281 -3627.91599254 931.27875719 -3618.97753906 922.28808594 C-3618.27806152 921.58256592 -3618.27806152 921.58256592 -3617.56445312 920.86279297 C-3601.36171169 904.7545768 -3581.1768829 893.62937815 -3558.97753906 888.28808594 C-3557.96111607 888.02347796 -3556.94469308 887.75886999 -3555.8974694 887.48624359 C-3546.13101083 885.12254636 -3536.89918009 884.86819904 -3526.90090954 884.91549045 C-3525.09555976 884.91288909 -3523.29021149 884.90897207 -3521.48486704 884.90387148 C-3516.52896737 884.8936672 -3511.57324933 884.90208338 -3506.61735897 884.91357359 C-3501.20375464 884.92278432 -3495.79017173 884.91448504 -3490.37656683 884.90845296 C-3480.8537859 884.90025186 -3471.33105883 884.9032211 -3461.8082806 884.91343639 C-3447.55252643 884.92866896 -3433.29680941 884.92655694 -3419.04105018 884.92103666 C-3394.74606325 884.91185444 -3370.45109687 884.91744084 -3346.15611267 884.93046951 C-3321.53179048 884.94362599 -3296.90747934 884.95021493 -3272.28315353 884.94876289 C-3271.50655652 884.94872002 -3270.72995951 884.94867715 -3269.92982925 884.94863298 C-3262.8128425 884.94823772 -3255.69585576 884.94776938 -3248.57886902 884.94721397 C-3230.73249438 884.9458247 -3212.88611978 884.9454271 -3195.03974509 884.94568765 C-3193.81307083 884.94570451 -3193.81307083 884.94570451 -3192.56161526 884.94572172 C-3152.24711031 884.94636426 -3111.93260952 884.95826796 -3071.61810684 884.97089577 C-3057.42630342 884.97533333 -3043.23449998 884.97971737 -3029.04269648 884.98390412 C-3027.71937838 884.98429458 -3027.71937838 884.98429458 -3026.36932658 884.98469291 C-2985.49980157 884.99668604 -2944.63027687 885.00097966 -2903.7607503 885.00330203 C-2901.08771859 885.00345431 -2898.41468688 885.00361021 -2895.74165517 885.00376704 C-2879.62320779 885.00470934 -2863.50476039 885.00557145 -2847.386313 885.00634097 C-2807.31620116 885.00825748 -2767.24608943 885.01113584 -2727.17597771 885.01466656 C-2726.26376984 885.01474646 -2725.35156198 885.01482636 -2724.41171146 885.01490868 C-2665.33242699 885.02009118 -2606.25314393 885.02923337 -2547.17386055 885.04169178 C-2545.75904514 885.04199008 -2545.75904514 885.04199008 -2544.31564761 885.04229441 C-2515.6037558 885.04835644 -2486.89186405 885.0547116 -2458.17997231 885.06112411 C-2426.40672473 885.06821905 -2394.63347713 885.07526398 -2362.86022949 885.08209229 C-2361.90479271 885.08229778 -2360.94935592 885.08250328 -2359.96496651 885.08271501 C-2269.21499711 885.1022173 -2178.46502726 885.11364856 -2087.71505631 885.12299364 C-2083.87106214 885.12339007 -2080.02706798 885.12378883 -2076.18307381 885.12418769 C-2040.80973226 885.12785791 -2005.43639071 885.13143341 -1970.06304915 885.13488995 C-1969.12243765 885.13498187 -1968.18182616 885.13507379 -1967.21271129 885.1351685 C-1964.36479261 885.13544678 -1961.51687394 885.13572504 -1958.66895527 885.13600329 C-1881.73161803 885.14352078 -1804.79428089 885.15186438 -1727.8569438 885.1607432 C-1725.14237862 885.16105626 -1722.42781344 885.16136868 -1719.71324826 885.16168092 C-1631.54789471 885.17182452 -1543.38254154 885.18345586 -1230.65380859 885.24047852 C-1229.89061268 885.2406284 -1229.12741677 885.24077828 -1228.34109371 885.2409327 C-1151.21990871 885.25607915 -1074.09872382 885.27174746 -996.97753906 885.28808594 C-996.77709582 884.06720417 -996.77709582 884.06720417 -996.57260323 882.82165813 C-996.39533636 881.74860833 -996.2180695 880.67555853 -996.03543091 879.56999207 C-995.86055208 878.50857089 -995.68567326 877.44714972 -995.50549507 876.35356426 C-994.82132033 872.38103092 -993.98881978 868.45604658 -993.09472656 864.52636719 C-992.9195752 863.74537155 -992.74442383 862.96437592 -992.56396484 862.15971375 C-991.99720926 859.6391486 -991.42515333 857.11982603 -990.85253906 854.60058594 C-990.65501038 853.7260376 -990.45748169 852.85148926 -990.25396729 851.95043945 C-987.40956386 839.35750794 -984.43832351 826.80034422 -981.35467529 814.2640686 C-978.74524155 803.64470885 -976.34719161 792.99223097 -974.05075073 782.30117798 C-971.67998512 771.28205732 -969.08942885 760.32802534 -966.40090942 749.38244629 C-963.85941528 739.0294813 -961.46910961 728.65187806 -959.19384766 718.23681641 C-957.42023376 710.16286668 -955.50596392 702.12969422 -953.54003906 694.10058594 C-951.04121529 683.87900045 -948.70049511 673.63470874 -946.47753906 663.35058594 C-942.55993863 645.24341492 -938.40999843 627.19355115 -934.00488281 609.19824219 C-933.75532082 608.17836212 -933.75532082 608.17836212 -933.50071716 607.13787842 C-933.33362747 606.45509827 -933.16653778 605.77231812 -932.99438477 605.06884766 C-932.65543048 603.68359515 -932.31648191 602.29834124 -931.97753906 600.91308594 C-931.80991058 600.22861389 -931.6422821 599.54414185 -931.46957397 598.83892822 C-928.77743042 587.82562841 -926.29797217 576.77646892 -923.91552734 565.69244385 C-921.87652544 556.21733503 -919.65110845 546.81011696 -917.2421875 537.42236328 C-915.17286027 529.27183133 -913.36925947 521.07075539 -911.60253906 512.85058594 C-908.89873714 500.27740659 -905.99706369 487.76481476 -902.88818359 475.28540039 C-901.2646173 468.74662248 -899.72940275 462.21951554 -898.41894531 455.60839844 C-898.17345947 454.4119873 -897.92797363 453.21557617 -897.67504883 451.98291016 C-897.22459036 449.75820977 -896.79998066 447.52804685 -896.40698242 445.29248047 C-896.10159546 443.81303955 -896.10159546 443.81303955 -895.79003906 442.30371094 C-895.63148438 441.45067383 -895.47292969 440.59763672 -895.30957031 439.71875 C-893.19251557 435.85559073 -889.77780462 434.33723838 -885.97753906 432.28808594 C-885.23611664 431.88790253 -884.49469421 431.48771912 -883.73080444 431.07540894 C-881.3188104 429.8044087 -878.89165038 428.56788186 -876.45800781 427.33886719 C-875.55995926 426.88134567 -874.66191071 426.42382416 -873.73664856 425.95243835 C-870.88118584 424.49836811 -868.02327295 423.0492002 -865.16503906 421.60058594 C-861.42841897 419.70269714 -857.6928934 417.80266689 -853.95800781 415.90136719 C-853.03396149 415.43120178 -852.10991516 414.96103638 -851.15786743 414.47662354 C-844.34857098 411.00497691 -837.57714362 407.46584918 -830.81993103 403.89408875 C-823.54270861 400.04950846 -816.22747309 396.28137272 -808.90289307 392.52798462 C-797.38250881 386.62363011 -785.87754765 380.69156869 -774.40722656 374.69042969 C-766.85869057 370.74263213 -759.29515891 366.82413705 -751.72753906 362.91308594 C-751.11501282 362.59651031 -750.50248657 362.27993469 -749.87139893 361.95376587 C-749.2588324 361.6371701 -748.64626587 361.32057434 -748.01513672 360.99438477 C-746.77864262 360.35531221 -745.54215173 359.71623344 -744.30566406 359.07714844 C-743.69326874 358.76063828 -743.08087341 358.44412811 -742.44992065 358.11802673 C-736.12272917 354.84728799 -729.79994905 351.56805648 -723.47753906 348.28808594 C-714.14756152 343.44824546 -704.8139451 338.61550822 -695.47753906 333.78808594 C-682.75351677 327.20891091 -670.03569946 320.61782381 -657.3203125 314.02197266 C-650.57984991 310.5257146 -643.83868435 307.03081209 -637.09765625 303.53564453 C-631.49749476 300.63194704 -625.89749257 297.72794329 -620.29785156 294.82324219 C-608.08484069 288.48845618 -595.86818163 282.16079999 -583.64709473 275.84161377 C-571.53332775 269.57772645 -559.42596175 263.30153464 -547.3203125 257.02197266 C-540.57984991 253.5257146 -533.83868435 250.03081209 -527.09765625 246.53564453 C-521.49749476 243.63194704 -515.89749257 240.72794329 -510.29785156 237.82324219 C-498.08484069 231.48845618 -485.86818163 225.16079999 -473.64709473 218.84161377 C-461.53332775 212.57772645 -449.42596175 206.30153464 -437.3203125 200.02197266 C-430.57984991 196.5257146 -423.83868435 193.03081209 -417.09765625 189.53564453 C-411.49749476 186.63194704 -405.89749257 183.72794329 -400.29785156 180.82324219 C-388.08484069 174.48845618 -375.86818163 168.16079999 -363.64709473 161.84161377 C-351.53332775 155.57772645 -339.42596175 149.30153464 -327.3203125 143.02197266 C-320.57984991 139.5257146 -313.83868435 136.03081209 -307.09765625 132.53564453 C-301.49749476 129.63194704 -295.89749257 126.72794329 -290.29785156 123.82324219 C-278.08484069 117.48845618 -265.86818163 111.16079999 -253.64709473 104.84161377 C-241.53332775 98.57772645 -229.42596175 92.30153464 -217.3203125 86.02197266 C-210.57984991 82.5257146 -203.83868435 79.03081209 -197.09765625 75.53564453 C-191.49749476 72.63194704 -185.89749257 69.72794329 -180.29785156 66.82324219 C-168.08484069 60.48845618 -155.86818163 54.16079999 -143.64709473 47.84161377 C-131.53332775 41.57772645 -119.42596175 35.30153464 -107.3203125 29.02197266 C-102.83210845 26.69395446 -98.34356597 24.36658927 -93.85498047 22.03930664 C-91.60981405 20.87517633 -89.36469657 19.71095161 -87.11962891 18.54663086 C-81.39611501 15.57843634 -75.67185575 12.61169397 -69.94628906 9.64746094 C-68.7897583 9.04812744 -67.63322754 8.44879395 -66.44165039 7.83129883 C-64.15632554 6.64829009 -61.86972922 5.46773391 -59.58178711 4.28979492 C-54.45963949 1.64658094 -49.36795114 -1.02831658 -44.34082031 -3.84863281 C-43.05014648 -4.5626123 -43.05014648 -4.5626123 -41.73339844 -5.29101562 C-40.16628919 -6.16225821 -38.60797462 -7.04962628 -37.06152344 -7.95703125 C-25.06793043 -14.57977483 -11.0838227 -5.56578746 0 0 Z " fill="#FEFEFE" transform="translate(4356.9775390625,1054.7119140625)"/>
<path d="M0 0 C0.7926123 0.16097168 1.58522461 0.32194336 2.40185547 0.48779297 C36.27096345 7.45985969 67.31574813 24.7187893 92.6875 47.91015625 C94.64985514 49.68356841 96.64661409 51.38150245 98.6875 53.0625 C102.55040938 56.37101035 105.76406645 60.08507094 109 64 C109.42941895 64.51175781 109.85883789 65.02351563 110.30126953 65.55078125 C132.41100881 91.98221123 147.51674021 122.45192765 154.6875 156.1875 C154.90237061 157.19772217 155.11724121 158.20794434 155.33862305 159.2487793 C155.54011963 160.23273682 155.74161621 161.21669434 155.94921875 162.23046875 C156.12799561 163.10082764 156.30677246 163.97118652 156.4909668 164.86791992 C157.70811804 172.35704859 158.15735947 179.80337029 158.16796875 187.3828125 C158.17129715 188.24075409 158.17462555 189.09869568 158.17805481 189.9826355 C158.18307872 191.78594433 158.18546455 193.5892623 158.18530273 195.39257812 C158.18747814 198.09781909 158.20565251 200.80264392 158.22460938 203.5078125 C158.35711601 243.9980861 145.34909637 282.92656601 122 316 C121.61102539 316.55719727 121.22205078 317.11439453 120.82128906 317.68847656 C115.59538985 325.11713989 109.74530041 331.90520068 103.47558594 338.45703125 C102.48410187 339.49379156 101.49783023 340.5355596 100.51660156 341.58203125 C88.35575972 354.5221115 74.45921347 365.25904285 59 374 C58.38253906 374.35513672 57.76507812 374.71027344 57.12890625 375.07617188 C45.55789752 381.68654023 33.56473957 386.60220964 21 391 C19.79214844 391.4228125 18.58429687 391.845625 17.33984375 392.28125 C9.04742792 394.99401057 0.60515951 396.66889252 -8 398 C-8.67595215 398.10586426 -9.3519043 398.21172852 -10.04833984 398.32080078 C-59.58519213 405.74015843 -111.46386403 393.93345966 -152.11010742 364.47045898 C-154.08887404 362.99931058 -156.04939942 361.50825405 -158 360 C-158.56589844 359.56252441 -159.13179687 359.12504883 -159.71484375 358.67431641 C-191.01577923 334.08206464 -213.2906665 301.52241741 -226.27001953 264.07861328 C-226.87954992 262.34298061 -227.5270104 260.62072856 -228.18359375 258.90234375 C-231.5727158 249.73720824 -232.99397877 240.11243883 -234.57714844 230.50585938 C-234.91853927 228.4827442 -235.30061622 226.46651953 -235.6953125 224.453125 C-244.39304413 176.18683959 -228.88964682 123.0879502 -202 83 C-196.87061272 75.65823298 -191.14569169 68.84179675 -185.07421875 62.26171875 C-183.19878414 60.21675333 -181.40967467 58.12380525 -179.625 56 C-154.07665911 26.90166185 -114.58540617 7.20969129 -77 0 C-76.17435547 -0.16371094 -75.34871094 -0.32742187 -74.49804688 -0.49609375 C-50.62689618 -5.04119089 -23.74425455 -5.19002916 0 0 Z " fill="#FEFEFE" transform="translate(2921,3723)"/>
<path d="M0 0 C3.35648184 2.99815215 6.64149895 6.06734202 9.89306641 9.17871094 C11.08435152 10.31628204 12.28933671 11.43947755 13.49707031 12.55957031 C43.17140308 40.84386305 61.41865458 81.63060335 68.29003906 121.51269531 C68.55929199 123.05920776 68.55929199 123.05920776 68.83398438 124.63696289 C70.26960132 133.63506823 70.611365 142.48595101 70.54003906 151.57519531 C70.53660492 152.29502594 70.53317078 153.01485657 70.52963257 153.75650024 C70.21722232 209.85933384 49.38355971 260.46560846 10.22753906 300.82519531 C5.52260388 305.38491645 0.42313702 309.44955709 -4.70996094 313.51269531 C-6.175625 314.70378906 -6.175625 314.70378906 -7.67089844 315.91894531 C-48.00731166 348.025511 -98.87941258 360.79134612 -149.85449219 356.01269531 C-200.38247828 350.24180999 -248.69031213 323.39638218 -280.39355469 283.58300781 C-297.08980017 261.45273977 -310.29743198 237.30446326 -317.70996094 210.51269531 C-317.9992749 209.51906982 -317.9992749 209.51906982 -318.29443359 208.50537109 C-327.36122814 177.32097311 -327.71555702 142.12134617 -320.70996094 110.51269531 C-320.52804199 109.6704541 -320.34612305 108.82821289 -320.15869141 107.96044922 C-312.07936333 71.59264268 -293.30625276 39.2790515 -267.70996094 12.51269531 C-266.83597656 11.58585937 -265.96199219 10.65902344 -265.06152344 9.70410156 C-258.1429661 2.55222044 -250.72023301 -3.61873553 -242.70996094 -9.48730469 C-242.1435791 -9.90334961 -241.57719727 -10.31939453 -240.99365234 -10.74804688 C-218.5382979 -26.99837798 -192.84637473 -38.07148398 -165.70996094 -43.48730469 C-164.68515625 -43.7 -163.66035156 -43.91269531 -162.60449219 -44.13183594 C-105.66756997 -55.29436371 -43.56486692 -37.89222862 0 0 Z " fill="#FEFEFE" transform="translate(1505.7099609375,3766.4873046875)"/>
</svg>
